<svg id="visual" viewBox="0 0 1920 1080" width="1920" height="1080" xmlns="http://www.w3.org/2000/svg" xmlns:xlink="http://www.w3.org/1999/xlink" version="1.1"><rect x="0" y="0" width="1920" height="1080" fill="#000000"></rect><path d="M0 415L16.8 425.8C33.7 436.7 67.3 458.3 101 468.7C134.7 479 168.3 478 202 467.8C235.7 457.7 269.3 438.3 303 442.5C336.7 446.7 370.3 474.3 404 491.5C437.7 508.7 471.3 515.3 505 514.8C538.7 514.3 572.3 506.7 606 517.7C639.7 528.7 673.3 558.3 707 542.3C740.7 526.3 774.3 464.7 808 442.7C841.7 420.7 875.3 438.3 909.2 438.5C943 438.7 977 421.3 1010.8 416.8C1044.7 412.3 1078.3 420.7 1112 427.7C1145.7 434.7 1179.3 440.3 1213 456.7C1246.7 473 1280.3 500 1314 519.2C1347.7 538.3 1381.3 549.7 1415 538.3C1448.7 527 1482.3 493 1516 489.3C1549.7 485.7 1583.3 512.3 1617 530.2C1650.7 548 1684.3 557 1718 538.5C1751.7 520 1785.3 474 1819 456.5C1852.7 439 1886.3 450 1903.2 455.5L1920 461L1920 1081L1903.2 1081C1886.3 1081 1852.7 1081 1819 1081C1785.3 1081 1751.7 1081 1718 1081C1684.3 1081 1650.7 1081 1617 1081C1583.3 1081 1549.7 1081 1516 1081C1482.3 1081 1448.7 1081 1415 1081C1381.3 1081 1347.7 1081 1314 1081C1280.3 1081 1246.7 1081 1213 1081C1179.3 1081 1145.7 1081 1112 1081C1078.3 1081 1044.7 1081 1010.8 1081C977 1081 943 1081 909.2 1081C875.3 1081 841.7 1081 808 1081C774.3 1081 740.7 1081 707 1081C673.3 1081 639.7 1081 606 1081C572.3 1081 538.7 1081 505 1081C471.3 1081 437.7 1081 404 1081C370.3 1081 336.7 1081 303 1081C269.3 1081 235.7 1081 202 1081C168.3 1081 134.7 1081 101 1081C67.3 1081 33.7 1081 16.8 1081L0 1081Z" fill="#fcaf3c"></path><path d="M0 527L16.8 542.8C33.7 558.7 67.3 590.3 101 593.7C134.7 597 168.3 572 202 555.8C235.7 539.7 269.3 532.3 303 523.3C336.7 514.3 370.3 503.7 404 526.3C437.7 549 471.3 605 505 605C538.7 605 572.3 549 606 524.3C639.7 499.7 673.3 506.3 707 524.7C740.7 543 774.3 573 808 566.8C841.7 560.7 875.3 518.3 909.2 504.3C943 490.3 977 504.7 1010.8 533C1044.7 561.3 1078.3 603.7 1112 624.8C1145.7 646 1179.3 646 1213 620C1246.7 594 1280.3 542 1314 533.8C1347.7 525.7 1381.3 561.3 1415 576.8C1448.7 592.3 1482.3 587.7 1516 594.3C1549.7 601 1583.3 619 1617 625C1650.7 631 1684.3 625 1718 611.5C1751.7 598 1785.3 577 1819 582.2C1852.7 587.3 1886.3 618.7 1903.2 634.3L1920 650L1920 1081L1903.2 1081C1886.3 1081 1852.7 1081 1819 1081C1785.3 1081 1751.7 1081 1718 1081C1684.3 1081 1650.7 1081 1617 1081C1583.3 1081 1549.7 1081 1516 1081C1482.3 1081 1448.7 1081 1415 1081C1381.3 1081 1347.7 1081 1314 1081C1280.3 1081 1246.7 1081 1213 1081C1179.3 1081 1145.7 1081 1112 1081C1078.3 1081 1044.7 1081 1010.8 1081C977 1081 943 1081 909.2 1081C875.3 1081 841.7 1081 808 1081C774.3 1081 740.7 1081 707 1081C673.3 1081 639.7 1081 606 1081C572.3 1081 538.7 1081 505 1081C471.3 1081 437.7 1081 404 1081C370.3 1081 336.7 1081 303 1081C269.3 1081 235.7 1081 202 1081C168.3 1081 134.7 1081 101 1081C67.3 1081 33.7 1081 16.8 1081L0 1081Z" fill="#f49c33"></path><path d="M0 556L16.8 557.8C33.7 559.7 67.3 563.3 101 578.5C134.7 593.7 168.3 620.3 202 644.8C235.7 669.3 269.3 691.7 303 693.3C336.7 695 370.3 676 404 651.2C437.7 626.3 471.3 595.7 505 603.8C538.7 612 572.3 659 606 671.7C639.7 684.3 673.3 662.7 707 639.8C740.7 617 774.3 593 808 601C841.7 609 875.3 649 909.2 672.2C943 695.3 977 701.7 1010.8 691.8C1044.7 682 1078.3 656 1112 640.3C1145.7 624.7 1179.3 619.3 1213 631C1246.7 642.7 1280.3 671.3 1314 675.5C1347.7 679.7 1381.3 659.3 1415 636C1448.7 612.7 1482.3 586.3 1516 586.7C1549.7 587 1583.3 614 1617 622.5C1650.7 631 1684.3 621 1718 624.5C1751.7 628 1785.3 645 1819 659.2C1852.7 673.3 1886.3 684.7 1903.2 690.3L1920 696L1920 1081L1903.2 1081C1886.3 1081 1852.7 1081 1819 1081C1785.3 1081 1751.7 1081 1718 1081C1684.3 1081 1650.7 1081 1617 1081C1583.3 1081 1549.7 1081 1516 1081C1482.3 1081 1448.7 1081 1415 1081C1381.3 1081 1347.7 1081 1314 1081C1280.3 1081 1246.7 1081 1213 1081C1179.3 1081 1145.7 1081 1112 1081C1078.3 1081 1044.7 1081 1010.8 1081C977 1081 943 1081 909.2 1081C875.3 1081 841.7 1081 808 1081C774.3 1081 740.7 1081 707 1081C673.3 1081 639.7 1081 606 1081C572.3 1081 538.7 1081 505 1081C471.3 1081 437.7 1081 404 1081C370.3 1081 336.7 1081 303 1081C269.3 1081 235.7 1081 202 1081C168.3 1081 134.7 1081 101 1081C67.3 1081 33.7 1081 16.8 1081L0 1081Z" fill="#eb882d"></path><path d="M0 774L16.8 760.2C33.7 746.3 67.3 718.7 101 715.5C134.7 712.3 168.3 733.7 202 723.7C235.7 713.7 269.3 672.3 303 658C336.7 643.7 370.3 656.3 404 675.3C437.7 694.3 471.3 719.7 505 728.2C538.7 736.7 572.3 728.3 606 735.7C639.7 743 673.3 766 707 762.2C740.7 758.3 774.3 727.7 808 724.5C841.7 721.3 875.3 745.7 909.2 736C943 726.3 977 682.7 1010.8 679C1044.7 675.3 1078.3 711.7 1112 733.2C1145.7 754.7 1179.3 761.3 1213 767.8C1246.7 774.3 1280.3 780.7 1314 784.3C1347.7 788 1381.3 789 1415 786C1448.7 783 1482.3 776 1516 753C1549.7 730 1583.3 691 1617 677.3C1650.7 663.7 1684.3 675.3 1718 691.5C1751.7 707.7 1785.3 728.3 1819 732.8C1852.7 737.3 1886.3 725.7 1903.2 719.8L1920 714L1920 1081L1903.2 1081C1886.3 1081 1852.7 1081 1819 1081C1785.3 1081 1751.7 1081 1718 1081C1684.3 1081 1650.7 1081 1617 1081C1583.3 1081 1549.7 1081 1516 1081C1482.3 1081 1448.7 1081 1415 1081C1381.3 1081 1347.7 1081 1314 1081C1280.3 1081 1246.7 1081 1213 1081C1179.3 1081 1145.7 1081 1112 1081C1078.3 1081 1044.7 1081 1010.8 1081C977 1081 943 1081 909.2 1081C875.3 1081 841.7 1081 808 1081C774.3 1081 740.7 1081 707 1081C673.3 1081 639.7 1081 606 1081C572.3 1081 538.7 1081 505 1081C471.3 1081 437.7 1081 404 1081C370.3 1081 336.7 1081 303 1081C269.3 1081 235.7 1081 202 1081C168.3 1081 134.7 1081 101 1081C67.3 1081 33.7 1081 16.8 1081L0 1081Z" fill="#e17528"></path><path d="M0 788L16.8 789C33.7 790 67.3 792 101 800.5C134.7 809 168.3 824 202 828C235.7 832 269.3 825 303 815.8C336.7 806.7 370.3 795.3 404 778.8C437.7 762.3 471.3 740.7 505 730.5C538.7 720.3 572.3 721.7 606 725.2C639.7 728.7 673.3 734.3 707 733.8C740.7 733.3 774.3 726.7 808 744C841.7 761.3 875.3 802.7 909.2 810C943 817.3 977 790.7 1010.8 784.7C1044.7 778.7 1078.3 793.3 1112 798.8C1145.7 804.3 1179.3 800.7 1213 805.2C1246.7 809.7 1280.3 822.3 1314 809.7C1347.7 797 1381.3 759 1415 751.5C1448.7 744 1482.3 767 1516 767C1549.7 767 1583.3 744 1617 739.2C1650.7 734.3 1684.3 747.7 1718 758.2C1751.7 768.7 1785.3 776.3 1819 789.8C1852.7 803.3 1886.3 822.7 1903.2 832.3L1920 842L1920 1081L1903.2 1081C1886.3 1081 1852.7 1081 1819 1081C1785.3 1081 1751.7 1081 1718 1081C1684.3 1081 1650.7 1081 1617 1081C1583.3 1081 1549.7 1081 1516 1081C1482.3 1081 1448.7 1081 1415 1081C1381.3 1081 1347.7 1081 1314 1081C1280.3 1081 1246.7 1081 1213 1081C1179.3 1081 1145.7 1081 1112 1081C1078.3 1081 1044.7 1081 1010.8 1081C977 1081 943 1081 909.2 1081C875.3 1081 841.7 1081 808 1081C774.3 1081 740.7 1081 707 1081C673.3 1081 639.7 1081 606 1081C572.3 1081 538.7 1081 505 1081C471.3 1081 437.7 1081 404 1081C370.3 1081 336.7 1081 303 1081C269.3 1081 235.7 1081 202 1081C168.3 1081 134.7 1081 101 1081C67.3 1081 33.7 1081 16.8 1081L0 1081Z" fill="#d76124"></path><path d="M0 859L16.8 863.8C33.7 868.7 67.3 878.3 101 870.8C134.7 863.3 168.3 838.7 202 822.7C235.7 806.7 269.3 799.3 303 815.2C336.7 831 370.3 870 404 869.8C437.7 869.7 471.3 830.3 505 814.8C538.7 799.3 572.3 807.7 606 819C639.7 830.3 673.3 844.7 707 844.8C740.7 845 774.3 831 808 827.7C841.7 824.3 875.3 831.7 909.2 840.5C943 849.3 977 859.7 1010.8 851.8C1044.7 844 1078.3 818 1112 807.5C1145.7 797 1179.3 802 1213 816C1246.7 830 1280.3 853 1314 854.2C1347.7 855.3 1381.3 834.7 1415 832C1448.7 829.3 1482.3 844.7 1516 844.3C1549.7 844 1583.3 828 1617 832.3C1650.7 836.7 1684.3 861.3 1718 873.2C1751.7 885 1785.3 884 1819 879.3C1852.7 874.7 1886.3 866.3 1903.2 862.2L1920 858L1920 1081L1903.2 1081C1886.3 1081 1852.7 1081 1819 1081C1785.3 1081 1751.7 1081 1718 1081C1684.3 1081 1650.7 1081 1617 1081C1583.3 1081 1549.7 1081 1516 1081C1482.3 1081 1448.7 1081 1415 1081C1381.3 1081 1347.7 1081 1314 1081C1280.3 1081 1246.7 1081 1213 1081C1179.3 1081 1145.7 1081 1112 1081C1078.3 1081 1044.7 1081 1010.8 1081C977 1081 943 1081 909.2 1081C875.3 1081 841.7 1081 808 1081C774.3 1081 740.7 1081 707 1081C673.3 1081 639.7 1081 606 1081C572.3 1081 538.7 1081 505 1081C471.3 1081 437.7 1081 404 1081C370.3 1081 336.7 1081 303 1081C269.3 1081 235.7 1081 202 1081C168.3 1081 134.7 1081 101 1081C67.3 1081 33.7 1081 16.8 1081L0 1081Z" fill="#cc4d22"></path><path d="M0 878L16.8 876.3C33.7 874.7 67.3 871.3 101 877.3C134.7 883.3 168.3 898.7 202 906C235.7 913.3 269.3 912.7 303 916.2C336.7 919.7 370.3 927.3 404 935C437.7 942.7 471.3 950.3 505 942.7C538.7 935 572.3 912 606 906.7C639.7 901.3 673.3 913.7 707 925.5C740.7 937.3 774.3 948.7 808 953.2C841.7 957.7 875.3 955.3 909.2 949.7C943 944 977 935 1010.8 922.8C1044.7 910.7 1078.3 895.3 1112 891.3C1145.7 887.3 1179.3 894.7 1213 906.3C1246.7 918 1280.3 934 1314 929C1347.7 924 1381.3 898 1415 896C1448.7 894 1482.3 916 1516 932.7C1549.7 949.3 1583.3 960.7 1617 952C1650.7 943.3 1684.3 914.7 1718 898C1751.7 881.3 1785.3 876.7 1819 887.7C1852.7 898.7 1886.3 925.3 1903.2 938.7L1920 952L1920 1081L1903.2 1081C1886.3 1081 1852.7 1081 1819 1081C1785.3 1081 1751.7 1081 1718 1081C1684.3 1081 1650.7 1081 1617 1081C1583.3 1081 1549.7 1081 1516 1081C1482.3 1081 1448.7 1081 1415 1081C1381.3 1081 1347.7 1081 1314 1081C1280.3 1081 1246.7 1081 1213 1081C1179.3 1081 1145.7 1081 1112 1081C1078.3 1081 1044.7 1081 1010.8 1081C977 1081 943 1081 909.2 1081C875.3 1081 841.7 1081 808 1081C774.3 1081 740.7 1081 707 1081C673.3 1081 639.7 1081 606 1081C572.3 1081 538.7 1081 505 1081C471.3 1081 437.7 1081 404 1081C370.3 1081 336.7 1081 303 1081C269.3 1081 235.7 1081 202 1081C168.3 1081 134.7 1081 101 1081C67.3 1081 33.7 1081 16.8 1081L0 1081Z" fill="#c03820"></path><path d="M0 1039L16.8 1037C33.7 1035 67.3 1031 101 1027C134.7 1023 168.3 1019 202 1014C235.7 1009 269.3 1003 303 996.7C336.7 990.3 370.3 983.7 404 986.2C437.7 988.7 471.3 1000.3 505 1001.2C538.7 1002 572.3 992 606 994.7C639.7 997.3 673.3 1012.7 707 1014.2C740.7 1015.7 774.3 1003.3 808 1002C841.7 1000.7 875.3 1010.3 909.2 1006.2C943 1002 977 984 1010.8 987.7C1044.7 991.3 1078.3 1016.7 1112 1017.2C1145.7 1017.7 1179.3 993.3 1213 978.3C1246.7 963.3 1280.3 957.7 1314 954.3C1347.7 951 1381.3 950 1415 960.7C1448.7 971.3 1482.3 993.7 1516 1003.3C1549.7 1013 1583.3 1010 1617 1010.2C1650.7 1010.3 1684.3 1013.7 1718 1009.7C1751.7 1005.7 1785.3 994.3 1819 994.3C1852.7 994.3 1886.3 1005.7 1903.2 1011.3L1920 1017L1920 1081L1903.2 1081C1886.3 1081 1852.7 1081 1819 1081C1785.3 1081 1751.7 1081 1718 1081C1684.3 1081 1650.7 1081 1617 1081C1583.3 1081 1549.7 1081 1516 1081C1482.3 1081 1448.7 1081 1415 1081C1381.3 1081 1347.7 1081 1314 1081C1280.3 1081 1246.7 1081 1213 1081C1179.3 1081 1145.7 1081 1112 1081C1078.3 1081 1044.7 1081 1010.8 1081C977 1081 943 1081 909.2 1081C875.3 1081 841.7 1081 808 1081C774.3 1081 740.7 1081 707 1081C673.3 1081 639.7 1081 606 1081C572.3 1081 538.7 1081 505 1081C471.3 1081 437.7 1081 404 1081C370.3 1081 336.7 1081 303 1081C269.3 1081 235.7 1081 202 1081C168.3 1081 134.7 1081 101 1081C67.3 1081 33.7 1081 16.8 1081L0 1081Z" fill="#b31f1f"></path></svg>